<?xml version="1.0" encoding="UTF-8"?><svg id="Layer_2" xmlns="http://www.w3.org/2000/svg" viewBox="0 0 622.96 719.33"><defs><style>.cls-1{fill:#b9b4ff;}.cls-2{fill:#e1e1ff;}.cls-3{fill:#8773ff;}.cls-4{fill:#6441d2;}.cls-5{fill:#280578;}</style></defs><g id="Layer_1-2"><polygon class="cls-2" points="0 179.83 0 539.5 311.48 719.33 622.96 539.5 622.96 179.83 311.48 0 0 179.83"/><path class="cls-5" d="m160.06,549.16v-62.7h8.59v26.5c1.49-2.58,3.44-4.52,5.84-5.82,2.41-1.3,5.08-1.95,8.03-1.95h.95c3.8,0,7.13.97,9.98,2.9,2.85,1.93,5.06,4.59,6.64,7.99,1.57,3.39,2.36,7.27,2.36,11.61s-.79,8.22-2.36,11.61c-1.58,3.39-3.79,6.06-6.64,7.99-2.85,1.93-6.18,2.9-9.98,2.9h-.95c-2.83,0-5.46-.61-7.88-1.83-2.42-1.22-4.42-3.03-5.99-5.43v6.22s-8.59,0-8.59,0Zm20.4-6.92h.86c3.75,0,6.73-1.26,8.93-3.78s3.31-6.11,3.31-10.78-1.11-8.26-3.31-10.78-5.18-3.78-8.93-3.78h-.86c-2.55,0-4.85.76-6.89,2.28-2.04,1.52-3.68,3.59-4.92,6.22v12.11c1.23,2.63,2.87,4.71,4.92,6.22,2.04,1.52,4.34,2.28,6.89,2.28h0Z"/><path class="cls-5" d="m224.39,550.02c-4.53,0-8.04-1.17-10.55-3.5-2.5-2.33-3.76-5.4-3.76-9.21s1.41-6.95,4.23-9.49c2.82-2.55,7.32-3.82,13.51-3.82h11.68v-.13c0-7.22-3.32-10.82-9.96-10.82-2.78,0-5.12.5-7.02,1.5s-3.44,2.41-4.62,4.21l-5.89-4.77c1.83-2.83,4.25-5.01,7.24-6.52,2.99-1.52,6.39-2.28,10.2-2.28h.95c5.27,0,9.5,1.52,12.71,4.56,3.21,3.04,4.81,7.57,4.81,13.61v25.81h-8.25v-7c-1.66,2.52-3.8,4.46-6.4,5.82s-5.57,2.04-8.89,2.04h0Zm1.89-7.64c3.32,0,6.08-.75,8.29-2.26,2.2-1.5,3.85-3.54,4.94-6.12v-3.26h-11.34c-3.38,0-5.79.53-7.24,1.61-1.44,1.07-2.16,2.53-2.16,4.36,0,3.78,2.5,5.67,7.52,5.67h0Z"/><path class="cls-5" d="m259.82,549.16v-62.7h8.59v62.7h-8.59Z"/><path class="cls-5" d="m292.71,550.02c-4.53,0-8.04-1.17-10.55-3.5-2.5-2.33-3.76-5.4-3.76-9.21s1.41-6.95,4.23-9.49c2.82-2.55,7.32-3.82,13.51-3.82h11.68v-.13c0-7.22-3.32-10.82-9.96-10.82-2.78,0-5.12.5-7.02,1.5s-3.44,2.41-4.62,4.21l-5.89-4.77c1.83-2.83,4.25-5.01,7.24-6.52,2.99-1.52,6.39-2.28,10.2-2.28h.95c5.27,0,9.5,1.52,12.71,4.56,3.21,3.04,4.81,7.57,4.81,13.61v25.81h-8.25v-7c-1.66,2.52-3.8,4.46-6.4,5.82-2.61,1.36-5.57,2.04-8.89,2.04h0Zm1.89-7.64c3.32,0,6.08-.75,8.29-2.26,2.2-1.5,3.85-3.54,4.94-6.12v-3.26h-11.34c-3.38,0-5.79.53-7.24,1.61-1.44,1.07-2.16,2.53-2.16,4.36,0,3.78,2.5,5.67,7.52,5.67h0Z"/><path class="cls-5" d="m328.15,549.16v-42.95h8.59v7.17c1.57-2.55,3.54-4.56,5.91-6.01,2.36-1.46,5.1-2.19,8.22-2.19h.95c4.75,0,8.48,1.68,11.19,5.02,2.71,3.35,4.06,8.06,4.06,14.13v24.82h-8.59v-23.79c0-8.13-2.95-12.2-8.85-12.2h-.86c-2.92,0-5.4.9-7.45,2.71s-3.57,4.08-4.57,6.83v26.45h-8.6Z"/><path class="cls-5" d="m397.67,550.19c-4.12,0-7.77-.9-10.95-2.71s-5.66-4.39-7.45-7.75-2.68-7.37-2.68-12,.89-8.68,2.66-12.05c1.77-3.36,4.25-5.95,7.4-7.77,3.16-1.82,6.83-2.73,11.01-2.73h.95c3.32,0,6.46.85,9.43,2.56s5.36,4.04,7.19,7.02l-6.66,4.64c-1.23-1.95-2.71-3.47-4.42-4.57-1.72-1.11-3.67-1.65-5.84-1.65h-.86c-3.72,0-6.65,1.31-8.78,3.93-2.13,2.62-3.2,6.15-3.2,10.58s1.07,7.93,3.2,10.56,5.06,3.95,8.78,3.95h.86c2.17,0,4.18-.49,6.01-1.46s3.41-2.28,4.72-3.91l6.19,5.24c-1.92,2.52-4.33,4.5-7.24,5.95s-6.04,2.17-9.38,2.17h-.95,0Z"/><path class="cls-5" d="m442.98,550.19c-4.12,0-7.74-.95-10.85-2.83-3.1-1.89-5.53-4.53-7.26-7.9-1.73-3.38-2.6-7.28-2.6-11.73s.86-8.35,2.6-11.74c1.73-3.39,4.15-6.04,7.26-7.95,3.1-1.9,6.72-2.86,10.85-2.86h.95c3.75,0,7.05.92,9.9,2.77,2.85,1.85,5.07,4.51,6.68,7.99s2.41,7.67,2.41,12.56v2.62h-31.74c.52,3.52,1.84,6.29,3.97,8.31,2.13,2.01,4.92,3.03,8.35,3.03h.86c2.06,0,4.04-.42,5.92-1.27,1.89-.84,3.48-1.98,4.77-3.41l5.28,5.59c-1.95,2.09-4.34,3.75-7.19,4.98-2.85,1.23-5.92,1.85-9.21,1.85h-.95,0Zm-.26-37.28c-3.07,0-5.62,1.01-7.67,3.03-2.04,2.01-3.35,4.77-3.89,8.27h23.11c-.26-3.18-1.29-5.86-3.11-8.03-1.82-2.17-4.34-3.26-7.58-3.26h-.86Z"/><path class="cls-3" d="m291.4,291.28c-9.44,25.35-20.14,46.87-35.92,53.5-.05.03-.13.05-.17.08h-90.72c18.31-5.98,27.43-107.44,69.65-107.44,24.51,0,35.21,26.94,57.17,53.86h-.01Z"/><path class="cls-1" d="m458.4,344.85h-54.45c-61.35-2.91-91.91-28.24-112.54-53.56.32-.79.59-1.59.89-2.37,17.52-47.76,30.91-107.73,64.54-107.73,52.18,0,55.64,144.39,101.35,163.59h.03c.08.03.13.05.19.08h0Z"/><path class="cls-4" d="m403.94,344.85h-148.65s.13-.05.17-.08c15.78-6.63,26.48-28.15,35.92-53.5,20.63,25.32,51.19,50.65,112.54,53.56h.01Z"/><path class="cls-5" d="m462.9,348.23v12.3c0,1.86-1.34,3.38-3,3.38H163.06c-1.65,0-3-1.51-3-3.38v-12.3c0-1.86,1.34-3.38,3-3.38h296.85c1.04,0,1.97.61,2.5,1.52.1.15.18.34.24.52.15.41.24.86.24,1.34h0Z"/><path class="cls-5" d="m311.49,432.41c-8.6,0-15.4-2.64-20.4-7.93-5-5.29-7.5-12.02-7.5-20.19s2.5-15.07,7.5-20.3c5-5.21,11.8-7.83,20.4-7.83s15.58,2.6,20.5,7.83c4.93,5.21,7.4,11.98,7.4,20.3s-2.46,14.91-7.4,20.19c-4.94,5.29-11.77,7.93-20.5,7.93h0Z"/></g></svg>