<?xml version="1.0" encoding="UTF-8"?><svg id="LOGOS" xmlns="http://www.w3.org/2000/svg" viewBox="0 0 500.61 433.49"><defs><style>.cls-1{fill:#b4b6b8;}.cls-2{fill:#231f20;}.cls-3{fill:gray;}.cls-4{fill:#58595b;}</style></defs><g><path class="cls-2" d="M50.33,373.84v-83.41h11.43v35.25c1.98-3.43,4.57-6.01,7.77-7.74,3.2-1.73,6.76-2.6,10.68-2.6h1.26c5.06,0,9.49,1.29,13.28,3.86,3.79,2.57,6.73,6.11,8.83,10.63,2.09,4.51,3.14,9.67,3.14,15.45,0,5.79-1.05,10.94-3.14,15.45-2.1,4.51-5.04,8.06-8.83,10.63-3.79,2.57-8.22,3.86-13.28,3.86h-1.26c-3.77,0-7.27-.81-10.48-2.43-3.22-1.62-5.88-4.03-7.97-7.23v8.28h-11.43Zm27.14-9.2h1.14c4.99,0,8.95-1.68,11.88-5.03,2.93-3.35,4.4-8.13,4.4-14.34s-1.47-10.99-4.4-14.34c-2.93-3.35-6.89-5.03-11.88-5.03h-1.14c-3.39,0-6.45,1.01-9.17,3.03-2.72,2.02-4.9,4.78-6.54,8.28v16.11c1.64,3.5,3.82,6.27,6.54,8.28,2.72,2.02,5.78,3.03,9.17,3.03Z"/><path class="cls-2" d="M135.91,374.98c-6.02,0-10.69-1.55-14.03-4.66-3.33-3.1-5-7.19-5-12.25s1.88-9.24,5.63-12.63c3.75-3.39,9.74-5.08,17.97-5.08h15.54v-.17c0-9.6-4.42-14.4-13.25-14.4-3.7,0-6.81,.67-9.34,2-2.53,1.33-4.58,3.2-6.14,5.6l-7.83-6.34c2.44-3.77,5.65-6.66,9.63-8.68,3.98-2.02,8.5-3.03,13.57-3.03h1.26c7.01,0,12.64,2.02,16.91,6.06,4.27,4.04,6.4,10.07,6.4,18.11v34.33h-10.97v-9.31c-2.21,3.35-5.05,5.93-8.51,7.74s-7.41,2.71-11.83,2.71Zm2.51-10.17c4.42,0,8.09-1,11.03-3,2.93-2,5.12-4.71,6.57-8.14v-4.34h-15.08c-4.49,0-7.7,.71-9.63,2.14-1.92,1.43-2.88,3.36-2.88,5.8,0,5.03,3.33,7.54,10,7.54Z"/><path class="cls-2" d="M183.04,373.84v-83.41h11.43v83.41h-11.43Z"/><path class="cls-2" d="M226.8,374.98c-6.02,0-10.69-1.55-14.03-4.66-3.33-3.1-5-7.19-5-12.25,0-5.03,1.88-9.24,5.63-12.63,3.75-3.39,9.74-5.08,17.97-5.08h15.54v-.17c0-9.6-4.42-14.4-13.25-14.4-3.7,0-6.81,.67-9.34,2-2.53,1.33-4.58,3.2-6.14,5.6l-7.83-6.34c2.44-3.77,5.65-6.66,9.63-8.68,3.98-2.02,8.5-3.03,13.57-3.03h1.26c7.01,0,12.64,2.02,16.91,6.06,4.27,4.04,6.4,10.07,6.4,18.11v34.33h-10.97v-9.31c-2.21,3.35-5.05,5.93-8.51,7.74-3.47,1.81-7.41,2.71-11.83,2.71Zm2.51-10.17c4.42,0,8.09-1,11.03-3,2.93-2,5.12-4.71,6.57-8.14v-4.34h-15.08c-4.49,0-7.7,.71-9.63,2.14-1.92,1.43-2.88,3.36-2.88,5.8,0,5.03,3.33,7.54,10,7.54Z"/><path class="cls-2" d="M273.94,373.84v-57.13h11.43v9.54c2.09-3.39,4.71-6.06,7.86-8,3.14-1.94,6.79-2.91,10.94-2.91h1.26c6.32,0,11.28,2.23,14.88,6.68,3.6,4.46,5.4,10.72,5.4,18.8v33.02h-11.43v-31.65c0-10.82-3.92-16.23-11.77-16.23h-1.14c-3.88,0-7.19,1.2-9.91,3.6-2.72,2.4-4.75,5.43-6.08,9.08v35.19h-11.43Z"/><path class="cls-2" d="M366.43,375.21c-5.48,0-10.34-1.2-14.57-3.6-4.23-2.4-7.53-5.84-9.91-10.31-2.38-4.47-3.57-9.8-3.57-15.97s1.18-11.55,3.54-16.03c2.36-4.47,5.65-7.92,9.85-10.34,4.21-2.42,9.09-3.63,14.65-3.63h1.26c4.42,0,8.6,1.13,12.54,3.4,3.94,2.27,7.13,5.38,9.57,9.34l-8.86,6.17c-1.64-2.59-3.6-4.62-5.88-6.08-2.29-1.47-4.88-2.2-7.77-2.2h-1.14c-4.95,0-8.85,1.74-11.68,5.23-2.84,3.48-4.26,8.18-4.26,14.08,0,5.87,1.42,10.55,4.26,14.05,2.84,3.5,6.73,5.26,11.68,5.26h1.14c2.89,0,5.56-.65,8-1.94,2.44-1.29,4.53-3.03,6.28-5.2l8.23,6.97c-2.55,3.35-5.76,5.99-9.63,7.91-3.87,1.92-8.03,2.89-12.48,2.89h-1.26Z"/><path class="cls-2" d="M426.7,375.21c-5.48,0-10.29-1.26-14.43-3.77-4.13-2.51-7.35-6.02-9.66-10.51-2.3-4.49-3.46-9.69-3.46-15.6s1.15-11.11,3.46-15.62c2.3-4.51,5.52-8.04,9.66-10.57,4.13-2.53,8.94-3.8,14.43-3.8h1.26c4.99,0,9.38,1.23,13.17,3.68,3.79,2.46,6.75,6,8.88,10.63,2.13,4.63,3.2,10.2,3.2,16.71v3.48h-42.22c.69,4.68,2.45,8.37,5.28,11.05,2.84,2.68,6.54,4.03,11.11,4.03h1.14c2.74,0,5.37-.56,7.88-1.69,2.51-1.12,4.63-2.64,6.34-4.54l7.03,7.43c-2.59,2.78-5.78,4.99-9.57,6.63-3.79,1.64-7.87,2.46-12.25,2.46h-1.26Zm-.34-49.59c-4.08,0-7.47,1.34-10.2,4.03-2.72,2.68-4.45,6.35-5.17,11h30.74c-.34-4.23-1.72-7.79-4.14-10.68-2.42-2.89-5.78-4.34-10.08-4.34h-1.14Z"/></g><g><path class="cls-3" d="M236.19,145.03c-7.32,19.66-15.62,36.35-27.86,41.49-.04,.02-.1,.04-.13,.06h-70.36c14.2-4.64,21.27-83.32,54.02-83.32,19.01,0,27.31,20.89,44.34,41.77Z"/><path class="cls-1" d="M365.71,186.57h-42.23c-47.58-2.26-71.28-21.9-87.28-41.54,.25-.61,.46-1.23,.69-1.84,13.59-37.04,23.97-83.55,50.05-83.55,40.47,0,43.15,111.98,78.6,126.87h.02c.06,.02,.1,.04,.15,.06Z"/><path class="cls-4" d="M323.47,186.57h-115.28s.1-.04,.13-.06c12.24-5.14,20.54-21.83,27.86-41.49,16,19.64,39.7,39.28,87.28,41.54Z"/></g><path class="cls-2" d="M369.2,189.19v9.54c0,1.44-1.04,2.62-2.33,2.62H136.66c-1.28,0-2.33-1.17-2.33-2.62v-9.54c0-1.44,1.04-2.62,2.33-2.62h230.22c.81,0,1.53,.47,1.94,1.18,.08,.12,.14,.26,.19,.4,.12,.32,.19,.67,.19,1.04Z"/><path class="cls-2" d="M251.77,254.48c-6.67,0-11.94-2.05-15.82-6.15-3.88-4.1-5.82-9.32-5.82-15.66,0-6.45,1.94-11.69,5.82-15.74,3.88-4.04,9.15-6.07,15.82-6.07,6.78,0,12.08,2.02,15.9,6.07,3.82,4.04,5.74,9.29,5.74,15.74,0,6.34-1.91,11.56-5.74,15.66-3.83,4.1-9.13,6.15-15.9,6.15Z"/></svg>