<?xml version="1.0" encoding="UTF-8"?><svg id="LOGOS" xmlns="http://www.w3.org/2000/svg" viewBox="0 0 711.28 255"><defs><style>.cls-1{fill:#b4b6b8;}.cls-2{fill:#231f20;}.cls-3{fill:gray;}.cls-4{fill:#58595b;}</style></defs><g><path class="cls-2" d="M256.49,176.99V93.58h11.43v35.25c1.98-3.43,4.57-6.01,7.77-7.74,3.2-1.73,6.76-2.6,10.68-2.6h1.26c5.06,0,9.49,1.29,13.28,3.86,3.79,2.57,6.73,6.11,8.83,10.63,2.09,4.51,3.14,9.67,3.14,15.45,0,5.79-1.05,10.94-3.14,15.45-2.1,4.51-5.04,8.06-8.83,10.63-3.79,2.57-8.22,3.86-13.28,3.86h-1.26c-3.77,0-7.27-.81-10.48-2.43-3.22-1.62-5.88-4.03-7.97-7.23v8.28h-11.43Zm27.14-9.2h1.14c4.99,0,8.95-1.68,11.88-5.03,2.93-3.35,4.4-8.13,4.4-14.34s-1.47-10.99-4.4-14.34c-2.93-3.35-6.89-5.03-11.88-5.03h-1.14c-3.39,0-6.45,1.01-9.17,3.03-2.72,2.02-4.9,4.78-6.54,8.28v16.11c1.64,3.5,3.82,6.27,6.54,8.28,2.72,2.02,5.78,3.03,9.17,3.03Z"/><path class="cls-2" d="M342.07,178.14c-6.02,0-10.69-1.55-14.03-4.66-3.33-3.1-5-7.19-5-12.25s1.88-9.24,5.63-12.63c3.75-3.39,9.74-5.08,17.97-5.08h15.54v-.17c0-9.6-4.42-14.4-13.25-14.4-3.7,0-6.81,.67-9.34,2-2.53,1.33-4.58,3.2-6.14,5.6l-7.83-6.34c2.44-3.77,5.65-6.66,9.63-8.68,3.98-2.02,8.5-3.03,13.57-3.03h1.26c7.01,0,12.64,2.02,16.91,6.06,4.27,4.04,6.4,10.07,6.4,18.11v34.33h-10.97v-9.31c-2.21,3.35-5.05,5.93-8.51,7.74s-7.41,2.71-11.83,2.71Zm2.51-10.17c4.42,0,8.09-1,11.03-3,2.93-2,5.12-4.71,6.57-8.14v-4.34h-15.08c-4.49,0-7.7,.71-9.63,2.14-1.92,1.43-2.88,3.36-2.88,5.8,0,5.03,3.33,7.54,10,7.54Z"/><path class="cls-2" d="M389.2,176.99V93.58h11.43v83.41h-11.43Z"/><path class="cls-2" d="M432.96,178.14c-6.02,0-10.69-1.55-14.03-4.66-3.33-3.1-5-7.19-5-12.25,0-5.03,1.88-9.24,5.63-12.63,3.75-3.39,9.74-5.08,17.97-5.08h15.54v-.17c0-9.6-4.42-14.4-13.25-14.4-3.7,0-6.81,.67-9.34,2-2.53,1.33-4.58,3.2-6.14,5.6l-7.83-6.34c2.44-3.77,5.65-6.66,9.63-8.68,3.98-2.02,8.5-3.03,13.57-3.03h1.26c7.01,0,12.64,2.02,16.91,6.06,4.27,4.04,6.4,10.07,6.4,18.11v34.33h-10.97v-9.31c-2.21,3.35-5.05,5.93-8.51,7.74-3.47,1.81-7.41,2.71-11.83,2.71Zm2.51-10.17c4.42,0,8.09-1,11.03-3,2.93-2,5.12-4.71,6.57-8.14v-4.34h-15.08c-4.49,0-7.7,.71-9.63,2.14-1.92,1.43-2.88,3.36-2.88,5.8,0,5.03,3.33,7.54,10,7.54Z"/><path class="cls-2" d="M480.09,176.99v-57.13h11.43v9.54c2.09-3.39,4.71-6.06,7.86-8,3.14-1.94,6.79-2.91,10.94-2.91h1.26c6.32,0,11.28,2.23,14.88,6.68,3.6,4.46,5.4,10.72,5.4,18.8v33.02h-11.43v-31.65c0-10.82-3.92-16.23-11.77-16.23h-1.14c-3.88,0-7.19,1.2-9.91,3.6-2.72,2.4-4.75,5.43-6.08,9.08v35.19h-11.43Z"/><path class="cls-2" d="M572.58,178.36c-5.48,0-10.34-1.2-14.57-3.6-4.23-2.4-7.53-5.84-9.91-10.31-2.38-4.47-3.57-9.8-3.57-15.97s1.18-11.55,3.54-16.03c2.36-4.47,5.65-7.92,9.85-10.34,4.21-2.42,9.09-3.63,14.65-3.63h1.26c4.42,0,8.6,1.13,12.54,3.4,3.94,2.27,7.13,5.38,9.57,9.34l-8.86,6.17c-1.64-2.59-3.6-4.62-5.88-6.08-2.29-1.47-4.88-2.2-7.77-2.2h-1.14c-4.95,0-8.85,1.74-11.68,5.23-2.84,3.48-4.26,8.18-4.26,14.08,0,5.87,1.42,10.55,4.26,14.05,2.84,3.5,6.73,5.26,11.68,5.26h1.14c2.89,0,5.56-.65,8-1.94,2.44-1.29,4.53-3.03,6.28-5.2l8.23,6.97c-2.55,3.35-5.76,5.99-9.63,7.91-3.87,1.92-8.03,2.89-12.48,2.89h-1.26Z"/><path class="cls-2" d="M632.86,178.36c-5.48,0-10.29-1.26-14.43-3.77-4.13-2.51-7.35-6.02-9.66-10.51-2.3-4.49-3.46-9.69-3.46-15.6s1.15-11.11,3.46-15.62c2.3-4.51,5.52-8.04,9.66-10.57,4.13-2.53,8.94-3.8,14.43-3.8h1.26c4.99,0,9.38,1.23,13.17,3.68,3.79,2.46,6.75,6,8.88,10.63,2.13,4.63,3.2,10.2,3.2,16.71v3.48h-42.22c.69,4.68,2.45,8.37,5.28,11.05,2.84,2.68,6.54,4.03,11.11,4.03h1.14c2.74,0,5.37-.56,7.88-1.69,2.51-1.12,4.63-2.64,6.34-4.54l7.03,7.43c-2.59,2.78-5.78,4.99-9.57,6.63-3.79,1.64-7.87,2.46-12.25,2.46h-1.26Zm-.34-49.59c-4.08,0-7.47,1.34-10.2,4.03-2.72,2.68-4.45,6.35-5.17,11h30.74c-.34-4.23-1.72-7.79-4.14-10.68-2.42-2.89-5.78-4.34-10.08-4.34h-1.14Z"/></g><g><g><path class="cls-3" d="M121.87,119.14c-5.08,13.65-10.85,25.24-19.35,28.81-.03,.01-.07,.03-.09,.04H53.56c9.86-3.22,14.77-57.86,37.51-57.86,13.2,0,18.96,14.5,30.79,29.01Z"/><path class="cls-1" d="M211.81,147.99h-29.33c-33.04-1.57-49.5-15.21-60.61-28.85,.17-.43,.32-.85,.48-1.28,9.43-25.72,16.65-58.02,34.76-58.02,28.1,0,29.97,77.77,54.59,88.11h.01s.07,.03,.11,.04Z"/><path class="cls-4" d="M182.48,147.99H102.42s.07-.03,.09-.04c8.5-3.57,14.27-15.16,19.35-28.81,11.11,13.64,27.57,27.28,60.61,28.85Z"/></g><path class="cls-2" d="M214.24,149.81v6.63c0,1-.72,1.82-1.61,1.82H52.75c-.89,0-1.61-.81-1.61-1.82v-6.63c0-1,.72-1.82,1.61-1.82H212.62c.56,0,1.06,.32,1.35,.82,.05,.09,.1,.18,.14,.28,.08,.22,.13,.46,.13,.72Z"/><path class="cls-2" d="M132.69,195.15c-4.63,0-8.29-1.42-10.99-4.27-2.7-2.85-4.04-6.47-4.04-10.87s1.35-8.12,4.04-10.93c2.69-2.81,6.36-4.21,10.99-4.21s8.39,1.41,11.04,4.21c2.66,2.81,3.98,6.45,3.98,10.93s-1.33,8.03-3.98,10.87c-2.66,2.85-6.34,4.27-11.04,4.27Z"/></g></svg>