<?xml version="1.0" encoding="UTF-8"?><svg id="LOGOS" xmlns="http://www.w3.org/2000/svg" viewBox="0 0 334.95 315.45"><defs><style>.cls-1{fill:#b4b6b8;}.cls-2{fill:#231f20;}.cls-3{fill:gray;}.cls-4{fill:#58595b;}</style></defs><g><path class="cls-3" d="M152.19,145.03c-7.32,19.66-15.62,36.35-27.86,41.49-.04,.02-.1,.04-.13,.06H53.83c14.2-4.64,21.27-83.32,54.02-83.32,19.01,0,27.31,20.89,44.34,41.77Z"/><path class="cls-1" d="M281.7,186.57h-42.23c-47.58-2.26-71.28-21.9-87.28-41.54,.25-.61,.46-1.23,.69-1.84,13.59-37.04,23.97-83.55,50.05-83.55,40.47,0,43.15,111.98,78.6,126.87h.02c.06,.02,.1,.04,.15,.06Z"/><path class="cls-4" d="M239.47,186.57H124.19s.1-.04,.13-.06c12.24-5.14,20.54-21.83,27.86-41.49,16,19.64,39.7,39.28,87.28,41.54Z"/></g><path class="cls-2" d="M285.2,189.19v9.54c0,1.44-1.04,2.62-2.33,2.62H52.66c-1.28,0-2.33-1.17-2.33-2.62v-9.54c0-1.44,1.04-2.62,2.33-2.62h230.22c.81,0,1.53,.47,1.94,1.18,.08,.12,.14,.26,.19,.4,.12,.32,.19,.67,.19,1.04Z"/><path class="cls-2" d="M167.77,254.48c-6.67,0-11.94-2.05-15.82-6.15-3.88-4.1-5.82-9.32-5.82-15.66,0-6.45,1.94-11.69,5.82-15.74,3.88-4.04,9.15-6.07,15.82-6.07,6.78,0,12.08,2.02,15.9,6.07,3.82,4.04,5.74,9.29,5.74,15.74,0,6.34-1.91,11.56-5.74,15.66-3.83,4.1-9.13,6.15-15.9,6.15Z"/></svg>